<svg xmlns="http://www.w3.org/2000/svg" viewBox="0 0 840 470" width="840" height="470" role="img" aria-label="x3r0day boot terminal">
  <style>
    text{font-family:'JetBrains Mono','Fira Code','DejaVu Sans Mono','Courier New',monospace}
    .fg{fill:#d4be98}.pr{fill:#89b482}.gr{fill:#928374}.ok{fill:#a9b665}.wn{fill:#d8a657}
  </style>
  <defs>
    <clipPath id="c1"><rect x="34" y="78" width="0" height="22"><animate attributeName="width" from="0" to="250" begin="0.4s" dur="0.5s" fill="freeze"/></rect></clipPath>
    <clipPath id="c2"><rect x="34" y="112" width="0" height="22"><animate attributeName="width" from="0" to="110" begin="1.0s" dur="0.5s" fill="freeze"/></rect></clipPath>
    <clipPath id="c3"><rect x="34" y="146" width="0" height="22"><animate attributeName="width" from="0" to="300" begin="1.7s" dur="0.6s" fill="freeze"/></rect></clipPath>
    <clipPath id="c4"><rect x="34" y="180" width="0" height="22"><animate attributeName="width" from="0" to="370" begin="2.5s" dur="0.5s" fill="freeze"/></rect></clipPath>
    <clipPath id="c5"><rect x="34" y="214" width="0" height="22"><animate attributeName="width" from="0" to="410" begin="3.2s" dur="0.6s" fill="freeze"/></rect></clipPath>
  </defs>

  <rect x="6" y="6" width="828" height="458" rx="12" fill="#1d2021" stroke="#3c3836" stroke-width="1.5"/>
  <path d="M6 18 a12 12 0 0 1 12 -12 h804 a12 12 0 0 1 12 12 v26 h-828 z" fill="#282828"/>
  <line x1="6" y1="44" x2="834" y2="44" stroke="#3c3836" stroke-width="1.2"/>
  <circle cx="30" cy="25" r="6" fill="#ea6962"/>
  <circle cx="52" cy="25" r="6" fill="#d8a657"/>
  <circle cx="74" cy="25" r="6" fill="#a9b665"/>
  <text x="420" y="30" text-anchor="middle" class="gr" font-size="13">x3r0day@arch: zsh</text>

  <g clip-path="url(#c1)"><text x="34" y="95" font-size="17"><tspan class="pr">x3r0day@arch</tspan><tspan class="gr"> ~ %</tspan><tspan class="fg"> whoami</tspan></text></g>
  <g clip-path="url(#c2)"><text x="34" y="129" font-size="17" class="fg">x3r0day</text></g>
  <g clip-path="url(#c3)"><text x="34" y="163" font-size="17"><tspan class="pr">x3r0day@arch</tspan><tspan class="gr"> ~ %</tspan><tspan class="fg"> cat .plan</tspan></text></g>
  <g clip-path="url(#c4)"><text x="34" y="197" font-size="17" class="fg">mostly RE, malware, and web bugs.</text></g>
  <g clip-path="url(#c5)"><text x="34" y="231" font-size="17" class="fg">also built a RISC-V cpu inside roblox.</text></g>

  <g opacity="0">
    <animate attributeName="opacity" from="0" to="1" begin="4.0s" dur="0.8s" fill="freeze"/>
    <text x="32" y="338" font-size="74" font-weight="bold" letter-spacing="3" class="wn">X3R0DAY</text>
    <text x="36" y="374" font-size="16" class="gr">bug hunter · security researcher</text>
    <text x="36" y="426" font-size="17"><tspan class="pr">x3r0day@arch</tspan><tspan class="gr"> ~ %</tspan></text>
    <rect x="202" y="412" width="11" height="18" fill="#d8a657">
      <animate attributeName="opacity" values="1;1;0;0" dur="1.1s" begin="4.8s" repeatCount="indefinite"/>
    </rect>
  </g>
</svg>
