<svg xmlns="http://www.w3.org/2000/svg" viewBox="0 0 840 420" width="840" height="420" role="img" aria-label="x3r0day bug hunt arcade"><style>
    text{font-family:'JetBrains Mono','Fira Code','DejaVu Sans Mono','Courier New',monospace}
    .fg{fill:#d4be98}.pr{fill:#89b482}.gr{fill:#928374}.ok{fill:#a9b665}.wn{fill:#d8a657}.rd{fill:#ea6962}
    .bug{fill:#ea6962}.ship{fill:#89b482}.shot{fill:#d8a657}
    </style><defs><symbol id="bug" viewBox="0 0 33 24" width="33" height="24"><rect x="6" y="0" width="3" height="3"/><rect x="24" y="0" width="3" height="3"/><rect x="9" y="3" width="3" height="3"/><rect x="21" y="3" width="3" height="3"/><rect x="6" y="6" width="3" height="3"/><rect x="9" y="6" width="3" height="3"/><rect x="12" y="6" width="3" height="3"/><rect x="15" y="6" width="3" height="3"/><rect x="18" y="6" width="3" height="3"/><rect x="21" y="6" width="3" height="3"/><rect x="24" y="6" width="3" height="3"/><rect x="3" y="9" width="3" height="3"/><rect x="6" y="9" width="3" height="3"/><rect x="12" y="9" width="3" height="3"/><rect x="15" y="9" width="3" height="3"/><rect x="18" y="9" width="3" height="3"/><rect x="24" y="9" width="3" height="3"/><rect x="27" y="9" width="3" height="3"/><rect x="0" y="12" width="3" height="3"/><rect x="3" y="12" width="3" height="3"/><rect x="6" y="12" width="3" height="3"/><rect x="9" y="12" width="3" height="3"/><rect x="12" y="12" width="3" height="3"/><rect x="15" y="12" width="3" height="3"/><rect x="18" y="12" width="3" height="3"/><rect x="21" y="12" width="3" height="3"/><rect x="24" y="12" width="3" height="3"/><rect x="27" y="12" width="3" height="3"/><rect x="30" y="12" width="3" height="3"/><rect x="0" y="15" width="3" height="3"/><rect x="6" y="15" width="3" height="3"/><rect x="9" y="15" width="3" height="3"/><rect x="12" y="15" width="3" height="3"/><rect x="15" y="15" width="3" height="3"/><rect x="18" y="15" width="3" height="3"/><rect x="21" y="15" width="3" height="3"/><rect x="24" y="15" width="3" height="3"/><rect x="30" y="15" width="3" height="3"/><rect x="0" y="18" width="3" height="3"/><rect x="6" y="18" width="3" height="3"/><rect x="24" y="18" width="3" height="3"/><rect x="30" y="18" width="3" height="3"/><rect x="9" y="21" width="3" height="3"/><rect x="12" y="21" width="3" height="3"/><rect x="18" y="21" width="3" height="3"/><rect x="21" y="21" width="3" height="3"/></symbol></defs><rect x="6" y="6" width="828" height="408" rx="12" fill="#1d2021" stroke="#3c3836" stroke-width="1.5"/><path d="M6 18 a12 12 0 0 1 12 -12 h804 a12 12 0 0 1 12 12 v26 h-828 z" fill="#282828"/><line x1="6" y1="44" x2="834" y2="44" stroke="#3c3836" stroke-width="1.2"/><circle cx="30" cy="25" r="6" fill="#ea6962"/><circle cx="52" cy="25" r="6" fill="#d8a657"/><circle cx="74" cy="25" r="6" fill="#a9b665"/><text x="420" y="30" text-anchor="middle" class="gr" font-size="13">bughunt.sh: squashing CVEs boop beep</text><text x="28" y="74" class="wn" font-size="20" font-weight="bold" letter-spacing="2">BUG HUNT</text><text x="612" y="74" class="gr" font-size="15">PATCHED</text><polyline points="700,66 705,72 714,58" fill="none" stroke="#a9b665" stroke-width="3" stroke-linecap="round" stroke-linejoin="round" opacity="0"><animate attributeName="opacity" dur="10.0s" repeatCount="indefinite" keyTimes="0;0.1150;0.1200;1" values="0;0;1;1"/></polyline><polyline points="724,66 729,72 738,58" fill="none" stroke="#a9b665" stroke-width="3" stroke-linecap="round" stroke-linejoin="round" opacity="0"><animate attributeName="opacity" dur="10.0s" repeatCount="indefinite" keyTimes="0;0.2750;0.2800;1" values="0;0;1;1"/></polyline><polyline points="748,66 753,72 762,58" fill="none" stroke="#a9b665" stroke-width="3" stroke-linecap="round" stroke-linejoin="round" opacity="0"><animate attributeName="opacity" dur="10.0s" repeatCount="indefinite" keyTimes="0;0.4350;0.4400;1" values="0;0;1;1"/></polyline><polyline points="772,66 777,72 786,58" fill="none" stroke="#a9b665" stroke-width="3" stroke-linecap="round" stroke-linejoin="round" opacity="0"><animate attributeName="opacity" dur="10.0s" repeatCount="indefinite" keyTimes="0;0.5950;0.6000;1" values="0;0;1;1"/></polyline><polyline points="796,66 801,72 810,58" fill="none" stroke="#a9b665" stroke-width="3" stroke-linecap="round" stroke-linejoin="round" opacity="0"><animate attributeName="opacity" dur="10.0s" repeatCount="indefinite" keyTimes="0;0.7550;0.7600;1" values="0;0;1;1"/></polyline><g><animateTransform attributeName="transform" type="translate" dur="2.5s" repeatCount="indefinite" values="0 0;0 7;0 0" calcMode="spline" keySplines="0.4 0 0.6 1;0.4 0 0.6 1" keyTimes="0;0.5;1"/><use href="#bug" class="bug" x="114" y="92" opacity="1"><animate attributeName="opacity" dur="10.0s" repeatCount="indefinite" keyTimes="0;0.1160;0.1200;1" values="1;1;0;0"/></use><use href="#bug" class="bug" x="269" y="92" opacity="1"><animate attributeName="opacity" dur="10.0s" repeatCount="indefinite" keyTimes="0;0.2760;0.2800;1" values="1;1;0;0"/></use><use href="#bug" class="bug" x="424" y="92" opacity="1"><animate attributeName="opacity" dur="10.0s" repeatCount="indefinite" keyTimes="0;0.4360;0.4400;1" values="1;1;0;0"/></use><use href="#bug" class="bug" x="579" y="92" opacity="1"><animate attributeName="opacity" dur="10.0s" repeatCount="indefinite" keyTimes="0;0.5960;0.6000;1" values="1;1;0;0"/></use><use href="#bug" class="bug" x="704" y="92" opacity="1"><animate attributeName="opacity" dur="10.0s" repeatCount="indefinite" keyTimes="0;0.7560;0.7600;1" values="1;1;0;0"/></use></g><rect x="128.5" width="3" height="14" class="shot" y="342" opacity="0"><animate attributeName="y" dur="10.0s" repeatCount="indefinite" keyTimes="0;0.0780;0.1200;1" values="342;342;100;100"/><animate attributeName="opacity" dur="10.0s" repeatCount="indefinite" keyTimes="0;0.0780;0.0781;0.1200;0.1201;1" values="0;0;1;1;0;0"/></rect><rect x="283.5" width="3" height="14" class="shot" y="342" opacity="0"><animate attributeName="y" dur="10.0s" repeatCount="indefinite" keyTimes="0;0.2380;0.2800;1" values="342;342;100;100"/><animate attributeName="opacity" dur="10.0s" repeatCount="indefinite" keyTimes="0;0.2380;0.2381;0.2800;0.2801;1" values="0;0;1;1;0;0"/></rect><rect x="438.5" width="3" height="14" class="shot" y="342" opacity="0"><animate attributeName="y" dur="10.0s" repeatCount="indefinite" keyTimes="0;0.3980;0.4400;1" values="342;342;100;100"/><animate attributeName="opacity" dur="10.0s" repeatCount="indefinite" keyTimes="0;0.3980;0.3981;0.4400;0.4401;1" values="0;0;1;1;0;0"/></rect><rect x="593.5" width="3" height="14" class="shot" y="342" opacity="0"><animate attributeName="y" dur="10.0s" repeatCount="indefinite" keyTimes="0;0.5580;0.6000;1" values="342;342;100;100"/><animate attributeName="opacity" dur="10.0s" repeatCount="indefinite" keyTimes="0;0.5580;0.5581;0.6000;0.6001;1" values="0;0;1;1;0;0"/></rect><rect x="718.5" width="3" height="14" class="shot" y="342" opacity="0"><animate attributeName="y" dur="10.0s" repeatCount="indefinite" keyTimes="0;0.7180;0.7600;1" values="342;342;100;100"/><animate attributeName="opacity" dur="10.0s" repeatCount="indefinite" keyTimes="0;0.7180;0.7181;0.7600;0.7601;1" values="0;0;1;1;0;0"/></rect><g transform="translate(130,104)" opacity="0"><animate attributeName="opacity" dur="10.0s" repeatCount="indefinite" keyTimes="0;0.1200;0.1550;0.1560;1" values="0;1;0;0;0"/><animateTransform attributeName="transform" type="scale" additive="sum" dur="10.0s" repeatCount="indefinite" keyTimes="0;0.1200;0.1550;1" values="0.3;0.3;1.4;1.4"/><line x1="0" y1="0" x2="14.0" y2="0.0" stroke="#d8a657" stroke-width="2.5" stroke-linecap="round"/><line x1="0" y1="0" x2="9.9" y2="9.9" stroke="#d8a657" stroke-width="2.5" stroke-linecap="round"/><line x1="0" y1="0" x2="0.0" y2="14.0" stroke="#d8a657" stroke-width="2.5" stroke-linecap="round"/><line x1="0" y1="0" x2="-9.9" y2="9.9" stroke="#d8a657" stroke-width="2.5" stroke-linecap="round"/><line x1="0" y1="0" x2="-14.0" y2="0.0" stroke="#d8a657" stroke-width="2.5" stroke-linecap="round"/><line x1="0" y1="0" x2="-9.9" y2="-9.9" stroke="#d8a657" stroke-width="2.5" stroke-linecap="round"/><line x1="0" y1="0" x2="-0.0" y2="-14.0" stroke="#d8a657" stroke-width="2.5" stroke-linecap="round"/><line x1="0" y1="0" x2="9.9" y2="-9.9" stroke="#d8a657" stroke-width="2.5" stroke-linecap="round"/></g><text x="130" y="104" text-anchor="middle" class="ok" font-size="13" font-weight="bold" opacity="0">+1 CVE<animate attributeName="opacity" dur="10.0s" repeatCount="indefinite" keyTimes="0;0.1200;0.1900;0.1910;1" values="0;1;0;0;0"/><animate attributeName="y" dur="10.0s" repeatCount="indefinite" keyTimes="0;0.1200;0.1900;1" values="104;104;70;70"/></text><g transform="translate(285,104)" opacity="0"><animate attributeName="opacity" dur="10.0s" repeatCount="indefinite" keyTimes="0;0.2800;0.3150;0.3160;1" values="0;1;0;0;0"/><animateTransform attributeName="transform" type="scale" additive="sum" dur="10.0s" repeatCount="indefinite" keyTimes="0;0.2800;0.3150;1" values="0.3;0.3;1.4;1.4"/><line x1="0" y1="0" x2="14.0" y2="0.0" stroke="#d8a657" stroke-width="2.5" stroke-linecap="round"/><line x1="0" y1="0" x2="9.9" y2="9.9" stroke="#d8a657" stroke-width="2.5" stroke-linecap="round"/><line x1="0" y1="0" x2="0.0" y2="14.0" stroke="#d8a657" stroke-width="2.5" stroke-linecap="round"/><line x1="0" y1="0" x2="-9.9" y2="9.9" stroke="#d8a657" stroke-width="2.5" stroke-linecap="round"/><line x1="0" y1="0" x2="-14.0" y2="0.0" stroke="#d8a657" stroke-width="2.5" stroke-linecap="round"/><line x1="0" y1="0" x2="-9.9" y2="-9.9" stroke="#d8a657" stroke-width="2.5" stroke-linecap="round"/><line x1="0" y1="0" x2="-0.0" y2="-14.0" stroke="#d8a657" stroke-width="2.5" stroke-linecap="round"/><line x1="0" y1="0" x2="9.9" y2="-9.9" stroke="#d8a657" stroke-width="2.5" stroke-linecap="round"/></g><text x="285" y="104" text-anchor="middle" class="ok" font-size="13" font-weight="bold" opacity="0">+1 CVE<animate attributeName="opacity" dur="10.0s" repeatCount="indefinite" keyTimes="0;0.2800;0.3500;0.3510;1" values="0;1;0;0;0"/><animate attributeName="y" dur="10.0s" repeatCount="indefinite" keyTimes="0;0.2800;0.3500;1" values="104;104;70;70"/></text><g transform="translate(440,104)" opacity="0"><animate attributeName="opacity" dur="10.0s" repeatCount="indefinite" keyTimes="0;0.4400;0.4750;0.4760;1" values="0;1;0;0;0"/><animateTransform attributeName="transform" type="scale" additive="sum" dur="10.0s" repeatCount="indefinite" keyTimes="0;0.4400;0.4750;1" values="0.3;0.3;1.4;1.4"/><line x1="0" y1="0" x2="14.0" y2="0.0" stroke="#d8a657" stroke-width="2.5" stroke-linecap="round"/><line x1="0" y1="0" x2="9.9" y2="9.9" stroke="#d8a657" stroke-width="2.5" stroke-linecap="round"/><line x1="0" y1="0" x2="0.0" y2="14.0" stroke="#d8a657" stroke-width="2.5" stroke-linecap="round"/><line x1="0" y1="0" x2="-9.9" y2="9.9" stroke="#d8a657" stroke-width="2.5" stroke-linecap="round"/><line x1="0" y1="0" x2="-14.0" y2="0.0" stroke="#d8a657" stroke-width="2.5" stroke-linecap="round"/><line x1="0" y1="0" x2="-9.9" y2="-9.9" stroke="#d8a657" stroke-width="2.5" stroke-linecap="round"/><line x1="0" y1="0" x2="-0.0" y2="-14.0" stroke="#d8a657" stroke-width="2.5" stroke-linecap="round"/><line x1="0" y1="0" x2="9.9" y2="-9.9" stroke="#d8a657" stroke-width="2.5" stroke-linecap="round"/></g><text x="440" y="104" text-anchor="middle" class="ok" font-size="13" font-weight="bold" opacity="0">+1 CVE<animate attributeName="opacity" dur="10.0s" repeatCount="indefinite" keyTimes="0;0.4400;0.5100;0.5110;1" values="0;1;0;0;0"/><animate attributeName="y" dur="10.0s" repeatCount="indefinite" keyTimes="0;0.4400;0.5100;1" values="104;104;70;70"/></text><g transform="translate(595,104)" opacity="0"><animate attributeName="opacity" dur="10.0s" repeatCount="indefinite" keyTimes="0;0.6000;0.6350;0.6360;1" values="0;1;0;0;0"/><animateTransform attributeName="transform" type="scale" additive="sum" dur="10.0s" repeatCount="indefinite" keyTimes="0;0.6000;0.6350;1" values="0.3;0.3;1.4;1.4"/><line x1="0" y1="0" x2="14.0" y2="0.0" stroke="#d8a657" stroke-width="2.5" stroke-linecap="round"/><line x1="0" y1="0" x2="9.9" y2="9.9" stroke="#d8a657" stroke-width="2.5" stroke-linecap="round"/><line x1="0" y1="0" x2="0.0" y2="14.0" stroke="#d8a657" stroke-width="2.5" stroke-linecap="round"/><line x1="0" y1="0" x2="-9.9" y2="9.9" stroke="#d8a657" stroke-width="2.5" stroke-linecap="round"/><line x1="0" y1="0" x2="-14.0" y2="0.0" stroke="#d8a657" stroke-width="2.5" stroke-linecap="round"/><line x1="0" y1="0" x2="-9.9" y2="-9.9" stroke="#d8a657" stroke-width="2.5" stroke-linecap="round"/><line x1="0" y1="0" x2="-0.0" y2="-14.0" stroke="#d8a657" stroke-width="2.5" stroke-linecap="round"/><line x1="0" y1="0" x2="9.9" y2="-9.9" stroke="#d8a657" stroke-width="2.5" stroke-linecap="round"/></g><text x="595" y="104" text-anchor="middle" class="ok" font-size="13" font-weight="bold" opacity="0">+1 CVE<animate attributeName="opacity" dur="10.0s" repeatCount="indefinite" keyTimes="0;0.6000;0.6700;0.6710;1" values="0;1;0;0;0"/><animate attributeName="y" dur="10.0s" repeatCount="indefinite" keyTimes="0;0.6000;0.6700;1" values="104;104;70;70"/></text><g transform="translate(720,104)" opacity="0"><animate attributeName="opacity" dur="10.0s" repeatCount="indefinite" keyTimes="0;0.7600;0.7950;0.7960;1" values="0;1;0;0;0"/><animateTransform attributeName="transform" type="scale" additive="sum" dur="10.0s" repeatCount="indefinite" keyTimes="0;0.7600;0.7950;1" values="0.3;0.3;1.4;1.4"/><line x1="0" y1="0" x2="14.0" y2="0.0" stroke="#d8a657" stroke-width="2.5" stroke-linecap="round"/><line x1="0" y1="0" x2="9.9" y2="9.9" stroke="#d8a657" stroke-width="2.5" stroke-linecap="round"/><line x1="0" y1="0" x2="0.0" y2="14.0" stroke="#d8a657" stroke-width="2.5" stroke-linecap="round"/><line x1="0" y1="0" x2="-9.9" y2="9.9" stroke="#d8a657" stroke-width="2.5" stroke-linecap="round"/><line x1="0" y1="0" x2="-14.0" y2="0.0" stroke="#d8a657" stroke-width="2.5" stroke-linecap="round"/><line x1="0" y1="0" x2="-9.9" y2="-9.9" stroke="#d8a657" stroke-width="2.5" stroke-linecap="round"/><line x1="0" y1="0" x2="-0.0" y2="-14.0" stroke="#d8a657" stroke-width="2.5" stroke-linecap="round"/><line x1="0" y1="0" x2="9.9" y2="-9.9" stroke="#d8a657" stroke-width="2.5" stroke-linecap="round"/></g><text x="720" y="104" text-anchor="middle" class="ok" font-size="13" font-weight="bold" opacity="0">+1 CVE<animate attributeName="opacity" dur="10.0s" repeatCount="indefinite" keyTimes="0;0.7600;0.8300;0.8310;1" values="0;1;0;0;0"/><animate attributeName="y" dur="10.0s" repeatCount="indefinite" keyTimes="0;0.7600;0.8300;1" values="104;104;70;70"/></text><g class="ship"><animateTransform attributeName="transform" type="translate" dur="10.0s" repeatCount="indefinite" calcMode="spline" keyTimes="0;0.10;0.27;0.43;0.59;0.75;1" values="420 352;130 352;285 352;440 352;595 352;720 352;420 352" keySplines="0.45 0 0.55 1;0.45 0 0.55 1;0.45 0 0.55 1;0.45 0 0.55 1;0.45 0 0.55 1;0.45 0 0.55 1"/><g><rect x="-18" y="6" width="36" height="9" rx="2"/><rect x="-9" y="-1" width="18" height="9" rx="2"/><rect x="-2" y="-9" width="4" height="9"/></g></g><line x1="20" y1="374" x2="820" y2="374" stroke="#3c3836" stroke-width="1.2"/><text x="28" y="392" class="gr" font-size="12">real hacking is mostly reading docs. this just looks cooler.</text></svg>